<mxfile host="app.diagrams.net" modified="2024-06-28T04:34:28.069Z" agent="Mozilla/5.0 (Windows NT 10.0; Win64; x64) AppleWebKit/537.36 (KHTML, like Gecko) Chrome/126.0.0.0 Safari/537.36" etag="Z4Aeu-CQ1TjqA08gdhLM" version="24.6.4" type="github">
  <diagram name="Page-1" id="HP4vaNlS5BNIqNdgq6U_">
    <mxGraphModel dx="2391" dy="1103" grid="1" gridSize="10" guides="1" tooltips="1" connect="1" arrows="1" fold="1" page="1" pageScale="1" pageWidth="850" pageHeight="1100" math="0" shadow="0">
      <root>
        <mxCell id="0" />
        <mxCell id="1" parent="0" />
        <mxCell id="3VdE_Cds8ZQd7bfjSIlU-44" value="" style="rounded=0;whiteSpace=wrap;html=1;" vertex="1" parent="1">
          <mxGeometry x="185" y="360" width="190" height="350" as="geometry" />
        </mxCell>
        <mxCell id="2ca8768sGWNtgbp86XUo-1" value="Next state logic" style="rounded=0;whiteSpace=wrap;html=1;" parent="1" vertex="1">
          <mxGeometry x="110" y="50" width="90" height="140" as="geometry" />
        </mxCell>
        <mxCell id="2ca8768sGWNtgbp86XUo-2" value="Current state logic" style="rounded=0;whiteSpace=wrap;html=1;" parent="1" vertex="1">
          <mxGeometry x="300" y="50" width="90" height="140" as="geometry" />
        </mxCell>
        <mxCell id="2ca8768sGWNtgbp86XUo-3" value="" style="triangle;whiteSpace=wrap;html=1;" parent="1" vertex="1">
          <mxGeometry x="300" y="170" width="10" height="20" as="geometry" />
        </mxCell>
        <mxCell id="2ca8768sGWNtgbp86XUo-4" value="" style="endArrow=classic;html=1;rounded=0;" parent="1" edge="1">
          <mxGeometry width="50" height="50" relative="1" as="geometry">
            <mxPoint x="260" y="180" as="sourcePoint" />
            <mxPoint x="300" y="179.76" as="targetPoint" />
          </mxGeometry>
        </mxCell>
        <mxCell id="2ca8768sGWNtgbp86XUo-5" value="" style="endArrow=none;html=1;rounded=0;" parent="1" edge="1">
          <mxGeometry width="50" height="50" relative="1" as="geometry">
            <mxPoint x="260" y="230" as="sourcePoint" />
            <mxPoint x="260" y="180" as="targetPoint" />
          </mxGeometry>
        </mxCell>
        <mxCell id="3VdE_Cds8ZQd7bfjSIlU-1" value="" style="endArrow=none;html=1;rounded=0;" edge="1" parent="1">
          <mxGeometry width="50" height="50" relative="1" as="geometry">
            <mxPoint x="190" y="230" as="sourcePoint" />
            <mxPoint x="260" y="230" as="targetPoint" />
          </mxGeometry>
        </mxCell>
        <mxCell id="3VdE_Cds8ZQd7bfjSIlU-2" value="clock" style="text;strokeColor=none;align=center;fillColor=none;html=1;verticalAlign=middle;whiteSpace=wrap;rounded=0;" vertex="1" parent="1">
          <mxGeometry x="190" y="200" width="60" height="30" as="geometry" />
        </mxCell>
        <mxCell id="3VdE_Cds8ZQd7bfjSIlU-3" value="" style="endArrow=classic;html=1;rounded=0;entryX=0;entryY=0.5;entryDx=0;entryDy=0;" edge="1" parent="1" target="2ca8768sGWNtgbp86XUo-2">
          <mxGeometry width="50" height="50" relative="1" as="geometry">
            <mxPoint x="200" y="119.80000000000001" as="sourcePoint" />
            <mxPoint x="270" y="119.80000000000001" as="targetPoint" />
          </mxGeometry>
        </mxCell>
        <mxCell id="3VdE_Cds8ZQd7bfjSIlU-4" value="next" style="text;strokeColor=none;align=center;fillColor=none;html=1;verticalAlign=middle;whiteSpace=wrap;rounded=0;" vertex="1" parent="1">
          <mxGeometry x="210" y="90" width="60" height="30" as="geometry" />
        </mxCell>
        <mxCell id="3VdE_Cds8ZQd7bfjSIlU-5" value="" style="endArrow=classic;html=1;rounded=0;" edge="1" parent="1">
          <mxGeometry width="50" height="50" relative="1" as="geometry">
            <mxPoint x="390" y="119.60000000000002" as="sourcePoint" />
            <mxPoint x="480" y="119.60000000000002" as="targetPoint" />
          </mxGeometry>
        </mxCell>
        <mxCell id="3VdE_Cds8ZQd7bfjSIlU-6" value="Output logic" style="rounded=0;whiteSpace=wrap;html=1;" vertex="1" parent="1">
          <mxGeometry x="480" y="50" width="90" height="140" as="geometry" />
        </mxCell>
        <mxCell id="3VdE_Cds8ZQd7bfjSIlU-7" value="" style="endArrow=none;html=1;rounded=0;" edge="1" parent="1">
          <mxGeometry width="50" height="50" relative="1" as="geometry">
            <mxPoint x="430" y="270" as="sourcePoint" />
            <mxPoint x="430" y="120" as="targetPoint" />
          </mxGeometry>
        </mxCell>
        <mxCell id="3VdE_Cds8ZQd7bfjSIlU-8" value="" style="endArrow=none;html=1;rounded=0;" edge="1" parent="1">
          <mxGeometry width="50" height="50" relative="1" as="geometry">
            <mxPoint x="70" y="270" as="sourcePoint" />
            <mxPoint x="430" y="270" as="targetPoint" />
          </mxGeometry>
        </mxCell>
        <mxCell id="3VdE_Cds8ZQd7bfjSIlU-9" value="" style="endArrow=none;html=1;rounded=0;" edge="1" parent="1">
          <mxGeometry width="50" height="50" relative="1" as="geometry">
            <mxPoint x="70" y="270" as="sourcePoint" />
            <mxPoint x="70" y="150" as="targetPoint" />
          </mxGeometry>
        </mxCell>
        <mxCell id="3VdE_Cds8ZQd7bfjSIlU-10" value="" style="endArrow=classic;html=1;rounded=0;" edge="1" parent="1">
          <mxGeometry width="50" height="50" relative="1" as="geometry">
            <mxPoint x="70" y="150" as="sourcePoint" />
            <mxPoint x="110" y="150" as="targetPoint" />
          </mxGeometry>
        </mxCell>
        <mxCell id="3VdE_Cds8ZQd7bfjSIlU-11" value="state" style="text;strokeColor=none;align=center;fillColor=none;html=1;verticalAlign=middle;whiteSpace=wrap;rounded=0;" vertex="1" parent="1">
          <mxGeometry x="400" y="90" width="60" height="30" as="geometry" />
        </mxCell>
        <mxCell id="3VdE_Cds8ZQd7bfjSIlU-12" value="state" style="text;strokeColor=none;align=center;fillColor=none;html=1;verticalAlign=middle;whiteSpace=wrap;rounded=0;" vertex="1" parent="1">
          <mxGeometry x="50" y="120" width="60" height="30" as="geometry" />
        </mxCell>
        <mxCell id="3VdE_Cds8ZQd7bfjSIlU-13" value="" style="verticalLabelPosition=bottom;shadow=0;dashed=0;align=center;html=1;verticalAlign=top;shape=mxgraph.electrical.logic_gates.logic_gate;operation=and;" vertex="1" parent="1">
          <mxGeometry x="135" y="70" width="40" height="30" as="geometry" />
        </mxCell>
        <mxCell id="3VdE_Cds8ZQd7bfjSIlU-14" value="" style="verticalLabelPosition=bottom;shadow=0;dashed=0;align=center;html=1;verticalAlign=top;shape=mxgraph.electrical.logic_gates.logic_gate;operation=and;" vertex="1" parent="1">
          <mxGeometry x="505" y="60" width="40" height="30" as="geometry" />
        </mxCell>
        <mxCell id="3VdE_Cds8ZQd7bfjSIlU-15" value="" style="endArrow=classic;html=1;rounded=0;" edge="1" parent="1">
          <mxGeometry width="50" height="50" relative="1" as="geometry">
            <mxPoint x="570" y="120" as="sourcePoint" />
            <mxPoint x="660" y="120" as="targetPoint" />
          </mxGeometry>
        </mxCell>
        <mxCell id="3VdE_Cds8ZQd7bfjSIlU-16" value="outputs" style="text;strokeColor=none;align=center;fillColor=none;html=1;verticalAlign=middle;whiteSpace=wrap;rounded=0;" vertex="1" parent="1">
          <mxGeometry x="580" y="90" width="60" height="30" as="geometry" />
        </mxCell>
        <mxCell id="3VdE_Cds8ZQd7bfjSIlU-17" value="" style="endArrow=classic;html=1;rounded=0;" edge="1" parent="1">
          <mxGeometry width="50" height="50" relative="1" as="geometry">
            <mxPoint x="30" y="70" as="sourcePoint" />
            <mxPoint x="110" y="70" as="targetPoint" />
          </mxGeometry>
        </mxCell>
        <mxCell id="3VdE_Cds8ZQd7bfjSIlU-18" value="inputs" style="text;strokeColor=none;align=center;fillColor=none;html=1;verticalAlign=middle;whiteSpace=wrap;rounded=0;" vertex="1" parent="1">
          <mxGeometry x="30" y="40" width="60" height="30" as="geometry" />
        </mxCell>
        <mxCell id="3VdE_Cds8ZQd7bfjSIlU-19" value="combinational logic" style="text;strokeColor=none;align=center;fillColor=none;html=1;verticalAlign=middle;whiteSpace=wrap;rounded=0;" vertex="1" parent="1">
          <mxGeometry x="97.5" y="20" width="115" height="30" as="geometry" />
        </mxCell>
        <mxCell id="3VdE_Cds8ZQd7bfjSIlU-20" value="sequential logic" style="text;strokeColor=none;align=center;fillColor=none;html=1;verticalAlign=middle;whiteSpace=wrap;rounded=0;" vertex="1" parent="1">
          <mxGeometry x="285" y="20" width="115" height="30" as="geometry" />
        </mxCell>
        <mxCell id="3VdE_Cds8ZQd7bfjSIlU-21" value="combinational logic" style="text;strokeColor=none;align=center;fillColor=none;html=1;verticalAlign=middle;whiteSpace=wrap;rounded=0;" vertex="1" parent="1">
          <mxGeometry x="467.5" y="20" width="115" height="30" as="geometry" />
        </mxCell>
        <mxCell id="3VdE_Cds8ZQd7bfjSIlU-22" value="" style="shape=trapezoid;perimeter=trapezoidPerimeter;whiteSpace=wrap;html=1;fixedSize=1;rotation=90;" vertex="1" parent="1">
          <mxGeometry x="175.16000000000003" y="512.35" width="279.37" height="54.69" as="geometry" />
        </mxCell>
        <mxCell id="3VdE_Cds8ZQd7bfjSIlU-23" value="" style="endArrow=classic;html=1;rounded=0;" edge="1" parent="1">
          <mxGeometry width="50" height="50" relative="1" as="geometry">
            <mxPoint x="105" y="460" as="sourcePoint" />
            <mxPoint x="290" y="460" as="targetPoint" />
          </mxGeometry>
        </mxCell>
        <mxCell id="3VdE_Cds8ZQd7bfjSIlU-24" value="" style="endArrow=classic;html=1;rounded=0;" edge="1" parent="1">
          <mxGeometry width="50" height="50" relative="1" as="geometry">
            <mxPoint x="105" y="500" as="sourcePoint" />
            <mxPoint x="290" y="500" as="targetPoint" />
          </mxGeometry>
        </mxCell>
        <mxCell id="3VdE_Cds8ZQd7bfjSIlU-25" value="" style="endArrow=classic;html=1;rounded=0;" edge="1" parent="1">
          <mxGeometry width="50" height="50" relative="1" as="geometry">
            <mxPoint x="105" y="540" as="sourcePoint" />
            <mxPoint x="290" y="540" as="targetPoint" />
          </mxGeometry>
        </mxCell>
        <mxCell id="3VdE_Cds8ZQd7bfjSIlU-26" value="IDLE" style="text;strokeColor=none;align=center;fillColor=none;html=1;verticalAlign=middle;whiteSpace=wrap;rounded=0;" vertex="1" parent="1">
          <mxGeometry x="105" y="430" width="60" height="30" as="geometry" />
        </mxCell>
        <mxCell id="3VdE_Cds8ZQd7bfjSIlU-27" value="WAIT_PASSWORD_IN" style="text;strokeColor=none;align=center;fillColor=none;html=1;verticalAlign=middle;whiteSpace=wrap;rounded=0;" vertex="1" parent="1">
          <mxGeometry x="30" y="506.25" width="150" height="30" as="geometry" />
        </mxCell>
        <mxCell id="3VdE_Cds8ZQd7bfjSIlU-28" value="RIGHT_PASSWORD_IN" style="text;strokeColor=none;align=center;fillColor=none;html=1;verticalAlign=middle;whiteSpace=wrap;rounded=0;" vertex="1" parent="1">
          <mxGeometry x="40.16" y="470" width="135" height="30" as="geometry" />
        </mxCell>
        <mxCell id="3VdE_Cds8ZQd7bfjSIlU-29" value="" style="endArrow=classic;html=1;rounded=0;" edge="1" parent="1">
          <mxGeometry width="50" height="50" relative="1" as="geometry">
            <mxPoint x="105" y="580" as="sourcePoint" />
            <mxPoint x="290" y="580" as="targetPoint" />
          </mxGeometry>
        </mxCell>
        <mxCell id="3VdE_Cds8ZQd7bfjSIlU-30" value="" style="endArrow=classic;html=1;rounded=0;" edge="1" parent="1">
          <mxGeometry width="50" height="50" relative="1" as="geometry">
            <mxPoint x="105" y="620" as="sourcePoint" />
            <mxPoint x="290" y="620" as="targetPoint" />
          </mxGeometry>
        </mxCell>
        <mxCell id="3VdE_Cds8ZQd7bfjSIlU-32" value="" style="endArrow=classic;html=1;rounded=0;entryX=0;entryY=0.5;entryDx=0;entryDy=0;" edge="1" parent="1" target="3VdE_Cds8ZQd7bfjSIlU-47">
          <mxGeometry width="50" height="50" relative="1" as="geometry">
            <mxPoint x="340" y="539.49" as="sourcePoint" />
            <mxPoint x="455" y="540" as="targetPoint" />
          </mxGeometry>
        </mxCell>
        <mxCell id="3VdE_Cds8ZQd7bfjSIlU-33" value="WRONG_PASSWORD_IN" style="text;strokeColor=none;align=center;fillColor=none;html=1;verticalAlign=middle;whiteSpace=wrap;rounded=0;" vertex="1" parent="1">
          <mxGeometry x="50" y="550" width="135" height="30" as="geometry" />
        </mxCell>
        <mxCell id="3VdE_Cds8ZQd7bfjSIlU-34" value="STOP" style="text;strokeColor=none;align=center;fillColor=none;html=1;verticalAlign=middle;whiteSpace=wrap;rounded=0;" vertex="1" parent="1">
          <mxGeometry x="65" y="590" width="135" height="30" as="geometry" />
        </mxCell>
        <mxCell id="3VdE_Cds8ZQd7bfjSIlU-36" value="000" style="text;strokeColor=none;align=center;fillColor=none;html=1;verticalAlign=middle;whiteSpace=wrap;rounded=0;" vertex="1" parent="1">
          <mxGeometry x="275" y="440" width="60" height="30" as="geometry" />
        </mxCell>
        <mxCell id="3VdE_Cds8ZQd7bfjSIlU-38" value="001" style="text;strokeColor=none;align=center;fillColor=none;html=1;verticalAlign=middle;whiteSpace=wrap;rounded=0;" vertex="1" parent="1">
          <mxGeometry x="275" y="482.35" width="60" height="30" as="geometry" />
        </mxCell>
        <mxCell id="3VdE_Cds8ZQd7bfjSIlU-39" value="010" style="text;strokeColor=none;align=center;fillColor=none;html=1;verticalAlign=middle;whiteSpace=wrap;rounded=0;" vertex="1" parent="1">
          <mxGeometry x="275" y="524.69" width="60" height="30" as="geometry" />
        </mxCell>
        <mxCell id="3VdE_Cds8ZQd7bfjSIlU-40" value="011" style="text;strokeColor=none;align=center;fillColor=none;html=1;verticalAlign=middle;whiteSpace=wrap;rounded=0;" vertex="1" parent="1">
          <mxGeometry x="275" y="567.04" width="60" height="30" as="geometry" />
        </mxCell>
        <mxCell id="3VdE_Cds8ZQd7bfjSIlU-41" value="100" style="text;strokeColor=none;align=center;fillColor=none;html=1;verticalAlign=middle;whiteSpace=wrap;rounded=0;" vertex="1" parent="1">
          <mxGeometry x="275" y="600" width="60" height="30" as="geometry" />
        </mxCell>
        <mxCell id="3VdE_Cds8ZQd7bfjSIlU-42" value="state" style="text;strokeColor=none;align=center;fillColor=none;html=1;verticalAlign=middle;whiteSpace=wrap;rounded=0;" vertex="1" parent="1">
          <mxGeometry x="125" y="670" width="60" height="30" as="geometry" />
        </mxCell>
        <mxCell id="3VdE_Cds8ZQd7bfjSIlU-43" value="next" style="text;strokeColor=none;align=center;fillColor=none;html=1;verticalAlign=middle;whiteSpace=wrap;rounded=0;" vertex="1" parent="1">
          <mxGeometry x="385" y="506.25" width="60" height="30" as="geometry" />
        </mxCell>
        <mxCell id="3VdE_Cds8ZQd7bfjSIlU-47" value="Current state logic" style="rounded=0;whiteSpace=wrap;html=1;" vertex="1" parent="1">
          <mxGeometry x="477.5" y="470" width="90" height="140" as="geometry" />
        </mxCell>
        <mxCell id="3VdE_Cds8ZQd7bfjSIlU-48" value="" style="triangle;whiteSpace=wrap;html=1;" vertex="1" parent="1">
          <mxGeometry x="477.5" y="590" width="10" height="20" as="geometry" />
        </mxCell>
        <mxCell id="3VdE_Cds8ZQd7bfjSIlU-49" value="" style="endArrow=classic;html=1;rounded=0;" edge="1" parent="1">
          <mxGeometry width="50" height="50" relative="1" as="geometry">
            <mxPoint x="440" y="600" as="sourcePoint" />
            <mxPoint x="477.5" y="599.8299999999999" as="targetPoint" />
          </mxGeometry>
        </mxCell>
        <mxCell id="3VdE_Cds8ZQd7bfjSIlU-50" value="" style="endArrow=none;html=1;rounded=0;" edge="1" parent="1">
          <mxGeometry width="50" height="50" relative="1" as="geometry">
            <mxPoint x="440" y="770" as="sourcePoint" />
            <mxPoint x="439.9" y="600" as="targetPoint" />
          </mxGeometry>
        </mxCell>
        <mxCell id="3VdE_Cds8ZQd7bfjSIlU-51" value="" style="endArrow=none;html=1;rounded=0;" edge="1" parent="1">
          <mxGeometry width="50" height="50" relative="1" as="geometry">
            <mxPoint x="370" y="770" as="sourcePoint" />
            <mxPoint x="440" y="770" as="targetPoint" />
          </mxGeometry>
        </mxCell>
        <mxCell id="3VdE_Cds8ZQd7bfjSIlU-53" value="" style="endArrow=none;html=1;rounded=0;" edge="1" parent="1">
          <mxGeometry width="50" height="50" relative="1" as="geometry">
            <mxPoint x="130" y="700" as="sourcePoint" />
            <mxPoint x="320" y="700" as="targetPoint" />
          </mxGeometry>
        </mxCell>
        <mxCell id="3VdE_Cds8ZQd7bfjSIlU-54" value="" style="endArrow=classic;html=1;rounded=0;" edge="1" parent="1">
          <mxGeometry width="50" height="50" relative="1" as="geometry">
            <mxPoint x="320.32" y="700" as="sourcePoint" />
            <mxPoint x="320" y="670" as="targetPoint" />
          </mxGeometry>
        </mxCell>
        <mxCell id="3VdE_Cds8ZQd7bfjSIlU-55" value="" style="endArrow=none;html=1;rounded=0;" edge="1" parent="1">
          <mxGeometry width="50" height="50" relative="1" as="geometry">
            <mxPoint x="130" y="810" as="sourcePoint" />
            <mxPoint x="130" y="700" as="targetPoint" />
          </mxGeometry>
        </mxCell>
        <mxCell id="3VdE_Cds8ZQd7bfjSIlU-56" value="" style="endArrow=classic;html=1;rounded=0;" edge="1" parent="1">
          <mxGeometry width="50" height="50" relative="1" as="geometry">
            <mxPoint x="567.5" y="539.58" as="sourcePoint" />
            <mxPoint x="650" y="540" as="targetPoint" />
          </mxGeometry>
        </mxCell>
        <mxCell id="3VdE_Cds8ZQd7bfjSIlU-57" value="" style="rounded=0;whiteSpace=wrap;html=1;" vertex="1" parent="1">
          <mxGeometry x="670" y="360" width="380" height="350" as="geometry" />
        </mxCell>
        <mxCell id="3VdE_Cds8ZQd7bfjSIlU-58" value="" style="shape=trapezoid;perimeter=trapezoidPerimeter;whiteSpace=wrap;html=1;fixedSize=1;rotation=90;" vertex="1" parent="1">
          <mxGeometry x="850.1600000000001" y="512.35" width="279.37" height="54.69" as="geometry" />
        </mxCell>
        <mxCell id="3VdE_Cds8ZQd7bfjSIlU-59" value="" style="endArrow=classic;html=1;rounded=0;" edge="1" parent="1">
          <mxGeometry width="50" height="50" relative="1" as="geometry">
            <mxPoint x="820" y="460" as="sourcePoint" />
            <mxPoint x="965" y="460" as="targetPoint" />
          </mxGeometry>
        </mxCell>
        <mxCell id="3VdE_Cds8ZQd7bfjSIlU-60" value="" style="endArrow=classic;html=1;rounded=0;" edge="1" parent="1">
          <mxGeometry width="50" height="50" relative="1" as="geometry">
            <mxPoint x="820" y="500" as="sourcePoint" />
            <mxPoint x="965" y="500" as="targetPoint" />
          </mxGeometry>
        </mxCell>
        <mxCell id="3VdE_Cds8ZQd7bfjSIlU-61" value="" style="endArrow=classic;html=1;rounded=0;" edge="1" parent="1">
          <mxGeometry width="50" height="50" relative="1" as="geometry">
            <mxPoint x="820" y="540" as="sourcePoint" />
            <mxPoint x="965" y="540" as="targetPoint" />
          </mxGeometry>
        </mxCell>
        <mxCell id="3VdE_Cds8ZQd7bfjSIlU-62" value="" style="endArrow=classic;html=1;rounded=0;" edge="1" parent="1">
          <mxGeometry width="50" height="50" relative="1" as="geometry">
            <mxPoint x="820" y="580" as="sourcePoint" />
            <mxPoint x="965" y="580" as="targetPoint" />
          </mxGeometry>
        </mxCell>
        <mxCell id="3VdE_Cds8ZQd7bfjSIlU-63" value="" style="endArrow=classic;html=1;rounded=0;" edge="1" parent="1">
          <mxGeometry width="50" height="50" relative="1" as="geometry">
            <mxPoint x="820" y="620" as="sourcePoint" />
            <mxPoint x="965" y="620" as="targetPoint" />
          </mxGeometry>
        </mxCell>
        <mxCell id="3VdE_Cds8ZQd7bfjSIlU-64" value="000" style="text;strokeColor=none;align=center;fillColor=none;html=1;verticalAlign=middle;whiteSpace=wrap;rounded=0;" vertex="1" parent="1">
          <mxGeometry x="950" y="440" width="60" height="30" as="geometry" />
        </mxCell>
        <mxCell id="3VdE_Cds8ZQd7bfjSIlU-65" value="001" style="text;strokeColor=none;align=center;fillColor=none;html=1;verticalAlign=middle;whiteSpace=wrap;rounded=0;" vertex="1" parent="1">
          <mxGeometry x="950" y="482.35" width="60" height="30" as="geometry" />
        </mxCell>
        <mxCell id="3VdE_Cds8ZQd7bfjSIlU-66" value="010" style="text;strokeColor=none;align=center;fillColor=none;html=1;verticalAlign=middle;whiteSpace=wrap;rounded=0;" vertex="1" parent="1">
          <mxGeometry x="950" y="524.69" width="60" height="30" as="geometry" />
        </mxCell>
        <mxCell id="3VdE_Cds8ZQd7bfjSIlU-67" value="011" style="text;strokeColor=none;align=center;fillColor=none;html=1;verticalAlign=middle;whiteSpace=wrap;rounded=0;" vertex="1" parent="1">
          <mxGeometry x="950" y="567.04" width="60" height="30" as="geometry" />
        </mxCell>
        <mxCell id="3VdE_Cds8ZQd7bfjSIlU-68" value="100" style="text;strokeColor=none;align=center;fillColor=none;html=1;verticalAlign=middle;whiteSpace=wrap;rounded=0;" vertex="1" parent="1">
          <mxGeometry x="950" y="600" width="60" height="30" as="geometry" />
        </mxCell>
        <mxCell id="3VdE_Cds8ZQd7bfjSIlU-69" value="" style="endArrow=none;html=1;rounded=0;" edge="1" parent="1">
          <mxGeometry width="50" height="50" relative="1" as="geometry">
            <mxPoint x="610" y="810" as="sourcePoint" />
            <mxPoint x="610" y="540" as="targetPoint" />
          </mxGeometry>
        </mxCell>
        <mxCell id="3VdE_Cds8ZQd7bfjSIlU-70" value="" style="rounded=0;whiteSpace=wrap;html=1;" vertex="1" parent="1">
          <mxGeometry x="700" y="390" width="120" height="280" as="geometry" />
        </mxCell>
        <mxCell id="3VdE_Cds8ZQd7bfjSIlU-71" value="" style="verticalLabelPosition=bottom;shadow=0;dashed=0;align=center;html=1;verticalAlign=top;shape=mxgraph.electrical.logic_gates.logic_gate;operation=and;" vertex="1" parent="1">
          <mxGeometry x="710" y="500" width="100" height="60" as="geometry" />
        </mxCell>
        <mxCell id="3VdE_Cds8ZQd7bfjSIlU-72" value="" style="endArrow=none;html=1;rounded=0;" edge="1" parent="1">
          <mxGeometry width="50" height="50" relative="1" as="geometry">
            <mxPoint x="650" y="730" as="sourcePoint" />
            <mxPoint x="650" y="540" as="targetPoint" />
          </mxGeometry>
        </mxCell>
        <mxCell id="3VdE_Cds8ZQd7bfjSIlU-73" value="" style="endArrow=none;html=1;rounded=0;" edge="1" parent="1">
          <mxGeometry width="50" height="50" relative="1" as="geometry">
            <mxPoint x="650" y="730" as="sourcePoint" />
            <mxPoint x="990" y="730" as="targetPoint" />
          </mxGeometry>
        </mxCell>
        <mxCell id="3VdE_Cds8ZQd7bfjSIlU-74" value="" style="endArrow=classic;html=1;rounded=0;" edge="1" parent="1">
          <mxGeometry width="50" height="50" relative="1" as="geometry">
            <mxPoint x="989.71" y="730" as="sourcePoint" />
            <mxPoint x="989.71" y="670" as="targetPoint" />
          </mxGeometry>
        </mxCell>
        <mxCell id="3VdE_Cds8ZQd7bfjSIlU-75" value="" style="endArrow=classic;html=1;rounded=0;" edge="1" parent="1">
          <mxGeometry width="50" height="50" relative="1" as="geometry">
            <mxPoint x="1020" y="539.66" as="sourcePoint" />
            <mxPoint x="1170" y="540" as="targetPoint" />
          </mxGeometry>
        </mxCell>
        <mxCell id="3VdE_Cds8ZQd7bfjSIlU-76" value="" style="endArrow=none;html=1;rounded=0;" edge="1" parent="1">
          <mxGeometry width="50" height="50" relative="1" as="geometry">
            <mxPoint x="130" y="810" as="sourcePoint" />
            <mxPoint x="610" y="810" as="targetPoint" />
          </mxGeometry>
        </mxCell>
        <mxCell id="3VdE_Cds8ZQd7bfjSIlU-77" value="state" style="text;strokeColor=none;align=center;fillColor=none;html=1;verticalAlign=middle;whiteSpace=wrap;rounded=0;" vertex="1" parent="1">
          <mxGeometry x="580" y="506.25" width="60" height="30" as="geometry" />
        </mxCell>
        <mxCell id="3VdE_Cds8ZQd7bfjSIlU-78" value="clock" style="text;strokeColor=none;align=center;fillColor=none;html=1;verticalAlign=middle;whiteSpace=wrap;rounded=0;" vertex="1" parent="1">
          <mxGeometry x="370" y="740" width="60" height="30" as="geometry" />
        </mxCell>
        <mxCell id="3VdE_Cds8ZQd7bfjSIlU-79" value="outputs" style="text;strokeColor=none;align=center;fillColor=none;html=1;verticalAlign=middle;whiteSpace=wrap;rounded=0;" vertex="1" parent="1">
          <mxGeometry x="1069.53" y="506.25" width="60" height="30" as="geometry" />
        </mxCell>
      </root>
    </mxGraphModel>
  </diagram>
</mxfile>
